<?xml version="1.0" encoding="utf-8"?>
<!DOCTYPE svg PUBLIC "-//W3C//DTD SVG 1.0//EN" "http://www.w3.org/TR/2001/REC-SVG-20010904/DTD/svg10.dtd">
<svg version="1.0" xmlns="http://www.w3.org/2000/svg" width="680px" height="678px" viewBox="0 0 680 678" preserveAspectRatio="xMidYMid meet">
 <g fill="#070707">
  <path d="M284 641.7 c-3 -0.5 -4.8 -1.2 -4 -1.5 0.8 -0.2 2.1 -0.9 2.8 -1.5 1 -0.8 1.2 -0.7 1 0.3 -0.5 2.4 3.3 2.3 6 -0.1 1.5 -1.3 2.1 -1.7 1.5 -0.9 -0.7 0.8 -1.3 2 -1.3 2.7 0 1.7 4.6 1.7 6 0.1 0.5 -0.7 1.9 -2.4 3.1 -3.8 l2 -2.5 -1.6 2.7 c-0.9 1.5 -1.3 3.2 -1 3.9 1 1.5 8.8 0.6 11.9 -1.4 l2.3 -1.6 -0.5 -16.3 c-0.2 -9 -0.2 -16.1 0 -15.8 0.3 0.3 0.8 7.8 1.2 16.7 l0.7 16.2 -2.8 1.8 c-3.2 2.1 -18.1 2.6 -27.3 1z"/>
  <path d="M356 641.9 c-1.4 -0.5 -3.1 -1.9 -3.9 -3.2 l-1.4 -2.2 2.4 2.2 c2.8 2.5 12.2 4.2 13.4 2.4 0.4 -0.7 0.1 -2 -0.7 -2.9 -1.2 -1.5 -1.1 -1.6 0.5 -0.3 2.1 1.7 2.2 3.7 0.1 4.5 -2.2 0.8 -7.4 0.6 -10.4 -0.5z"/>
  <path d="M370.5 642.4 c1.1 -0.3 2.6 -1.3 3.3 -2.2 0.7 -0.9 1.2 -1.1 1.2 -0.4 0 0.7 1.3 1.2 3 1.2 2.9 0 3.9 -1.5 2.3 -3.6 -0.5 -0.5 -0.1 -0.2 0.7 0.7 0.9 0.9 2.2 1.8 3 2.1 1.5 0.5 -2.9 1.4 -11.2 2.2 -2.4 0.3 -3.4 0.3 -2.3 0z"/>
  <path d="M274.4 637.6 c-0.3 -0.8 -0.4 -2.3 -0.2 -3.3 0.3 -1.1 0.6 -0.6 0.9 1.5 0.6 3.4 0.2 4.2 -0.7 1.8z"/>
  <path d="M385.7 628.3 c-2.8 -3 -4.6 -6.5 -6.3 -12 -3.4 -11 -2.8 -11.6 0.7 -0.8 2.2 6.6 4 10 6.6 12.7 2 2.1 3.5 3.9 3.2 4.1 -0.2 0.2 -2.1 -1.6 -4.2 -4z"/>
  <path d="M278.8 627 c7.2 -10 9.6 -16.8 8.1 -22.5 -0.8 -2.8 -0.6 -4.2 1.1 -7.7 1.2 -2.4 1.8 -3.2 1.4 -1.8 -0.4 1.4 -0.8 5.9 -0.8 10 -0.1 8.8 -3 15.7 -9.6 23 l-4.1 4.5 3.9 -5.5z"/>
  <path d="M351.2 625.5 c0 -2.7 0.4 -8.1 0.8 -12 l0.7 -7 0.1 7.5 c0 4.1 -0.3 9.5 -0.7 12 l-0.8 4.5 -0.1 -5z"/>
  <path d="M312.9 602.5 c-0.4 -1.6 -0.9 -3.9 -1.3 -5 -0.4 -1.1 0 -0.7 0.9 0.8 0.9 1.6 1.5 3.8 1.3 5 -0.3 1.8 -0.5 1.7 -0.9 -0.8z"/>
  <path d="M351.2 602.5 c-0.1 -2.5 3.6 -11.6 3.8 -9.2 0 0.5 -0.5 1.8 -1.2 3 -0.6 1.2 -1.5 3.8 -1.9 5.7 -0.7 3.4 -0.7 3.4 -0.7 0.5z"/>
  <path d="M288.7 583 c-0.4 -2 -3.1 -11.2 -6.1 -20.5 -13.5 -42.4 -14.5 -52.4 -7.8 -78.5 2.2 -8.5 4.1 -14.8 4.1 -14 0 0.8 -1.3 7.1 -2.9 14 -3.9 16.3 -4.7 27.8 -2.7 39.5 1.5 8.6 3.1 14.3 12.7 46.5 2.2 7.4 3.9 14.2 3.7 15 -0.2 0.8 -0.6 -0.1 -1 -2z"/>
  <path d="M307.3 577.5 c0 -4.4 0.2 -6.1 0.4 -3.7 0.2 2.3 0.2 5.9 0 8 -0.2 2 -0.4 0.1 -0.4 -4.3z"/>
  <path d="M355.2 578 c0 -1.9 0.2 -2.7 0.5 -1.7 0.2 0.9 0.2 2.5 0 3.5 -0.3 0.9 -0.5 0.1 -0.5 -1.8z"/>
  <path d="M354.2 569 c0 -1.9 0.2 -2.7 0.5 -1.7 0.2 0.9 0.2 2.5 0 3.5 -0.3 0.9 -0.5 0.1 -0.5 -1.8z"/>
  <path d="M378.1 570.9 c-0.1 -0.4 1.9 -8.9 4.4 -19 6.5 -27 6.9 -31.9 5.6 -64.1 -1.2 -29.2 -1.2 -37.9 0 -23.3 1.6 20.6 2.2 56.3 1 64.2 -1.8 11.2 -10.7 45.5 -11 42.2z"/>
  <path d="M308.5 563 c0.2 -3 1.6 -17 3.1 -31 2.5 -23.7 2.6 -26.5 1.5 -39 -1.7 -19.6 -1.5 -23.3 1.9 -33.5 1.6 -4.9 2.9 -8.3 3 -7.4 0 0.8 -1.2 4.9 -2.6 9 -2.3 6.6 -2.5 8.4 -2 16.9 1.8 27 1.8 35 0.2 50.5 -1.7 16.3 -5.9 44.5 -5.1 34.5z"/>
  <path d="M350.1 543.1 c-2.1 -19.8 -2.4 -32.2 -1.1 -46.6 0.8 -7.7 1.4 -19.4 1.5 -26 0.1 -6.6 0.6 -14.3 1 -17.1 0.6 -4.4 0.2 -6.9 -2.8 -17 -4.5 -14.6 -11.1 -42.2 -12.8 -52.6 -2 -13 -2.7 -11.5 -10.6 21.7 -1.3 5.5 -3.5 17.4 -4.8 26.5 -1.9 13 -2.4 14.7 -1.9 8 0.7 -12.4 4 -31.3 8 -45.8 5.7 -21.1 6.4 -23.3 7.3 -22.7 0.5 0.2 1.4 3.5 2.1 7.2 1.6 9.3 10.4 45.6 14 57.9 3.3 11.2 3.5 14.3 1.9 22.6 -0.7 3.5 -0.8 6.6 -0.2 8.3 0.5 1.7 0.4 7.8 -0.4 16.4 -1.5 17.1 -1.6 41.6 -0.2 57.3 0.6 6.5 0.9 12.1 0.7 12.4 -0.3 0.2 -1 -4.5 -1.7 -10.5z"/>
  <path d="M276.3 458.5 c0 -2.7 0.2 -3.8 0.4 -2.2 0.2 1.5 0.2 3.7 0 5 -0.2 1.2 -0.4 0 -0.4 -2.8z"/>
  <path d="M388.3 451.5 c0 -2.2 0.2 -3 0.4 -1.7 0.2 1.2 0.2 3 0 4 -0.3 0.9 -0.5 -0.1 -0.4 -2.3z"/>
  <path d="M391.2 432 c0 -1.9 0.2 -2.7 0.5 -1.7 0.2 0.9 0.2 2.5 0 3.5 -0.3 0.9 -0.5 0.1 -0.5 -1.8z"/>
  <path d="M392.6 422 c0.3 -3.6 1.5 -12.1 2.6 -19 1.6 -9.4 2.2 -16.7 2.1 -29.5 0 -16.5 -0.1 -17.4 -3.6 -30 -6.2 -21.8 -7.6 -29.7 -8 -46 -0.3 -12.3 -0.9 -16.8 -3 -24.9 -4.3 -15.8 -3.1 -34.9 3.2 -51.6 2.3 -5.9 2.1 -4.6 -0.9 6.8 -4.6 17.5 -4.9 34 -0.9 46.4 1.6 4.9 2.3 10.4 2.9 24.3 0.8 18.5 1.4 21.8 9.1 48.5 3.5 12.5 3.7 33.2 0.5 55 -1.4 9.6 -3 19.5 -3.6 22 -0.9 4.1 -0.9 4 -0.4 -2z"/>
  <path d="M271.1 391.5 c-1.6 -10.6 -1.4 -32.2 0.4 -43.5 0.8 -5.2 2.9 -15.4 4.6 -22.7 3 -13.1 3 -13.2 1.5 -20.7 -2.6 -12.3 -2.1 -20 1.8 -31.5 1.9 -5.5 3.6 -11 3.9 -12.3 0.4 -2.1 0.4 -2 0.6 0.4 0 1.5 -1.3 6.5 -3 11 -4 11 -4.7 20.1 -2.4 31.5 l1.8 8.8 -2.6 11 c-5.3 22.1 -7 41.2 -5.7 61.6 0.5 7.3 0.8 13.5 0.6 13.6 -0.2 0.2 -0.9 -3 -1.5 -7.2z"/>
  <path d="M237.7 381.9 c-7.1 -6.5 -11.2 -13.3 -12.2 -20.4 -0.4 -3 0 -2.4 1.3 2.2 2.1 6.8 6.7 14.7 8.2 13.8 0.5 -0.3 0.2 -2.1 -0.6 -4.1 -0.8 -2 -1.3 -3.8 -1.1 -4 0.2 -0.3 1.2 1.6 2.1 4 2.2 5.7 7.2 12.6 9.1 12.6 1.8 0 1.9 -2.2 0.4 -5.3 -1 -2.2 -1 -2.2 0.6 -0.2 1.7 2.1 1.7 6.6 0 7.2 -0.6 0.2 -4.1 -2.4 -7.8 -5.8z"/>
  <path d="M421 385.5 c-0.9 -1.1 -0.5 -3.2 1.5 -9.7 1.5 -4.6 3 -12.1 3.4 -16.8 l0.8 -8.5 0.1 7.5 c0.1 5.6 -0.6 9.7 -2.8 16.5 -1.6 5.2 -2.4 9.4 -1.9 9.9 1 1.1 4.3 -1.6 6.6 -5.5 0.9 -1.5 2.2 -2.5 2.9 -2.2 0.8 0.3 0 1.8 -2.4 4.4 -4.9 5.3 -6.7 6.2 -8.2 4.4z"/>
  <path d="M241.7 374.6 c-3 -6.4 -4 -15.3 -2.6 -23.4 1.1 -6.6 2.9 -10.7 2.9 -6.7 0 2.2 6.3 8.5 8.4 8.5 2 0 2 -1.6 0.1 -7 -2.5 -7 -1.6 -7 1.1 0 3.8 9.8 1.6 11.9 -5.6 5.4 -2.2 -2 -4.4 -3.4 -4.8 -3 -1.4 1.5 -0.6 20 1.1 24.6 2 5.4 1.7 6.2 -0.6 1.6z"/>
  <path d="M441.1 361.7 c1.4 -4.4 1.6 -6.8 0.8 -16 -0.5 -5.9 -1.6 -15.1 -2.4 -20.4 -0.9 -5.3 -1.4 -9.8 -1.1 -10 0.7 -0.7 3.5 16.8 4.6 28.8 0.8 9.6 0.7 12.4 -0.5 16.7 -0.9 2.8 -1.9 5.3 -2.4 5.6 -0.4 0.3 0 -1.8 1 -4.7z"/>
  <path d="M224.4 346.5 c0 -6 0.1 -8.4 0.3 -5.2 0.2 3.2 0.2 8.1 0 11 -0.2 2.9 -0.3 0.3 -0.3 -5.8z"/>
  <path d="M412.1 353.2 c-0.8 -1.4 -0.4 -3 1.4 -6.5 1.9 -3.5 2.5 -6.1 2.5 -10.8 0 -5.3 0.5 -6.9 3.6 -12 2 -3.2 3.9 -5.9 4.1 -5.9 0.5 0 -2.1 4.8 -4.6 8.5 -1.6 2.3 -2.1 4.6 -2.1 9.5 0 4.8 -0.6 7.4 -2.1 9.9 -2.7 4.4 -2.2 7.7 1.1 7.3 3.1 -0.3 8 -5 8 -7.6 0 -1.7 0.2 -1.8 1 -0.6 1.2 1.9 1.3 4 0.1 4 -0.5 0 -2.3 1.4 -4.1 3 -3.6 3.4 -7.5 3.9 -8.9 1.2z"/>
  <path d="M248.3 335.5 c0 -2.2 0.2 -3 0.4 -1.7 0.2 1.2 0.2 3 0 4 -0.3 0.9 -0.5 -0.1 -0.4 -2.3z"/>
  <path d="M224.1 331.4 c0.1 -2.1 0.5 -5 0.9 -6.4 0.5 -1.6 0.6 -0.2 0.3 3.5 -0.7 6.9 -1.3 8.6 -1.2 2.9z"/>
  <path d="M245.8 327 c-0.9 -2.2 -1.5 -4 -1.3 -4 0.8 0 3.6 6.1 3.3 7 -0.2 0.5 -1.1 -0.9 -2 -3z"/>
  <path d="M242 319.7 c0 -2.5 5.4 -15.6 10 -24.2 8.1 -15.4 10.1 -22.2 10.9 -38.5 l0.8 -13.5 0.1 11.6 c0.3 15.5 -1.9 23.5 -10.7 40.9 -3.7 7.4 -7.6 15.9 -8.5 18.8 -1.5 4.3 -2.6 6.5 -2.6 4.9z"/>
  <path d="M436.8 303.5 c-0.4 -4.9 -1 -14.4 -1.3 -21 -0.7 -14.4 -2.3 -26.6 -4.2 -31.9 -0.7 -2.2 -1.1 -4.1 -0.9 -4.3 0.5 -0.6 3.2 8 4.5 14.2 1.6 8.2 3.3 32.3 2.9 42.5 l-0.3 9.5 -0.7 -9z"/>
  <path d="M227.7 294 c-0.9 -18.1 0.3 -31.2 3.9 -43.8 1.4 -4.6 2.9 -9.3 3.4 -10.3 0.6 -1 1.1 -4.4 1.2 -7.6 l0.2 -5.8 0.3 4.9 c0.3 3.4 -0.4 7.5 -2.1 13 -4.2 13.3 -4.8 18 -5.5 42.1 l-0.6 23 -0.8 -15.5z"/>
  <path d="M411.6 298.3 c-7 -14.1 -9.8 -24.8 -11.1 -42.8 -0.4 -4.4 -0.9 -9.3 -1.2 -11 -0.4 -2.3 -0.2 -2.7 0.7 -1.9 0.7 0.7 1.6 6.4 2.1 13.5 1.3 15.9 3.7 26.2 9.3 38.8 2.5 5.5 4.3 10.1 4.1 10.1 -0.3 0 -2 -3 -3.9 -6.7z"/>
  <path d="M284.4 249 c0 -5.2 0.1 -7.4 0.3 -4.7 0.2 2.6 0.2 6.8 0 9.5 -0.2 2.6 -0.3 0.4 -0.3 -4.8z"/>
  <path d="M394.6 228 c-2.1 -7.2 -4.4 -13 -5 -13 -0.6 0 -1.1 -1.6 -1.2 -3.5 0 -2 0.3 -3.2 0.7 -2.8 1.8 2.1 11 32.3 9.8 32.3 -0.2 0 -2.1 -5.9 -4.3 -13z"/>
  <path d="M266 234 c0 -1.9 6.1 -20.3 6.6 -19.8 0.2 0.2 -1.2 5.1 -3.1 10.8 -1.9 5.8 -3.4 9.8 -3.5 9z"/>
  <path d="M424.7 228.8 c-1.2 -8.8 -2.9 -30.9 -2.4 -31.4 0.2 -0.3 0.8 3.5 1.1 8.3 0.4 4.8 1.2 12.8 1.7 17.6 1.1 8.9 0.7 13.5 -0.4 5.5z"/>
  <path d="M237.1 221.5 c0 -2.2 0.6 -10.3 1.4 -18 0.8 -7.7 1.5 -17 1.5 -20.6 0 -7.6 6.7 -35.6 10.1 -42.4 2.7 -5.4 7.4 -10.4 11.4 -12.1 1.7 -0.7 8.2 -2 14.4 -2.8 14.2 -2 15.5 -2.3 21.3 -5.2 3.2 -1.6 5.5 -3.7 7.2 -6.6 3.2 -5.6 5.4 -13.5 4.1 -15.2 -0.6 -0.7 -2.9 -3.6 -5.2 -6.5 -2.3 -2.8 -5.6 -8.7 -7.4 -13.1 -2.7 -6.6 -3.7 -8 -5.5 -8 -3.6 0 -8 -4.5 -9.4 -9.5 -1.9 -7 0.2 -17.5 3.6 -17.5 0.6 0 2.1 1.1 3.4 2.5 1.3 1.4 2.6 2.5 3 2.5 0.3 0 1.1 -2.9 1.7 -6.4 1.6 -9.5 7.1 -20.2 13.9 -26.9 7.3 -7.2 13 -10 21.4 -10.5 18.1 -1 32.9 13.3 39 37.6 0.9 3.4 1.5 4.2 2.8 3.7 1.3 -0.5 1.3 -0.2 -0.3 1.5 -1 1.1 -2 1.8 -2.2 1.6 -0.3 -0.2 -1.1 -3.5 -1.9 -7.2 -3.1 -14.9 -11.6 -27.4 -22.5 -33 -4.4 -2.3 -6.7 -2.8 -12.9 -2.8 -9.6 -0.1 -16.8 3.2 -23.6 10.7 -7.3 8.1 -13.3 22.9 -13.5 33.2 0 3.5 -0.2 3.8 -1.2 2.1 -2.3 -3.6 -5.9 -7.6 -6.8 -7.6 -1.4 0 -3.9 6.4 -3.9 9.7 0 8.5 4.9 15.8 10 15.1 2.5 -0.4 2.9 0 4 3.6 2.1 7 6 14.4 10.6 20 2.4 3 4.4 6.3 4.4 7.4 0 4 -4.2 13.8 -7.2 16.9 -5.5 5.7 -12.2 7.8 -31.3 9.8 -15 1.6 -19.5 7 -25.4 30.5 -2.6 10.2 -4.1 19 -4.5 25.5 -0.7 11 -3.5 39.4 -4.1 41 -0.2 0.6 -0.4 -0.8 -0.4 -3z"/>
  <path d="M273.7 211 c0.3 -1.4 1.4 -4.3 2.4 -6.5 1.1 -2.2 1.6 -2.9 1.2 -1.5 -0.3 1.4 -0.6 3.7 -0.5 5.3 0.2 1.8 -0.3 2.7 -1.2 2.7 -0.8 0 -1.7 0.6 -2 1.3 -0.3 0.6 -0.3 0.1 0.1 -1.3z"/>
  <path d="M421.2 193 c0 -1.9 0.2 -2.7 0.5 -1.7 0.2 0.9 0.2 2.5 0 3.5 -0.3 0.9 -0.5 0.1 -0.5 -1.8z"/>
  <path d="M420.3 183.5 c0 -2.2 0.2 -3 0.4 -1.7 0.2 1.2 0.2 3 0 4 -0.3 0.9 -0.5 -0.1 -0.4 -2.3z"/>
  <path d="M419 171.7 c0 -3.6 -3.3 -21.1 -4.5 -24 -2.3 -5.5 -12.9 -16.3 -18.8 -19.1 -3.1 -1.5 -10.1 -3.3 -17 -4.4 -15.1 -2.5 -20.2 -5 -23.6 -11.5 -1.8 -3.6 -2.4 -6.2 -2.3 -10.8 0.1 -5.3 0.6 -6.8 4.4 -12.8 3.6 -5.6 6.4 -12.3 8.4 -19.8 0.2 -0.7 1.4 -1.3 2.8 -1.3 4.3 0 7.5 -6.9 9 -19.5 0.1 -1.6 0.4 -0.7 0.5 2.1 0.2 8.7 -4.5 18.4 -9 18.4 -1.2 0 -2.3 1.6 -3.5 5.3 -2.1 6.4 -5.9 14.2 -9 18.3 -3.3 4.2 -3.3 13.1 -0.1 19.4 3 6 8 8.4 23.5 10.9 6.7 1.2 14.1 3 16.4 4.2 8.5 4.3 18.6 15.8 20.7 23.4 1.3 5.2 3.2 20.7 2.6 21.3 -0.3 0.3 -0.5 0.2 -0.5 -0.1z"/>
 </g>
<g opacity="0.5" transform="rotate(-45, 340.0, 339.0)">
  <text x="50%" y="50%" font-size="20" text-anchor="middle" fill="lightgray" dominant-baseline="middle">
    generated by vectorizer.io
  </text>
</g>
</svg>