<?xml version="1.0" encoding="utf-8"?>
<!DOCTYPE svg PUBLIC "-//W3C//DTD SVG 1.0//EN" "http://www.w3.org/TR/2001/REC-SVG-20010904/DTD/svg10.dtd">
<svg version="1.0" xmlns="http://www.w3.org/2000/svg" width="680px" height="678px" viewBox="0 0 680 678" preserveAspectRatio="xMidYMid meet">
 <g fill="#000000">
  <path d="M293 659.50 c-3.15 -0.45 -4.50 -0.90 -4.50 -1.55 0 -0.25 -0.85 -0.45 -1.95 -0.45 -1.10 0 -2.20 -0.30 -2.55 -0.75 -0.35 -0.40 -1.20 -0.75 -1.95 -0.75 -2.20 0 -2.55 -0.80 -2.55 -5.85 0 -4.45 0.05 -4.75 1.40 -6.05 3.45 -3.40 9.20 -12.90 10.90 -18 1.20 -3.50 1.20 -3.80 0.50 -5.35 -1.35 -2.85 -1.05 -7.20 0.75 -10.55 2.40 -4.55 2.40 -6.75 0.05 -14.70 -2.45 -8.20 -4.25 -14.05 -7.25 -23.25 -3.30 -10.10 -6.05 -19.95 -7.90 -28.25 -1.35 -6.25 -1.65 -8.50 -1.85 -16.40 -0.25 -10.70 0.50 -17.45 3.20 -27.45 4.15 -15.50 3.90 -14.20 3.25 -16.90 -1.85 -7.85 -1.85 -12 -0.05 -19.25 1.70 -6.85 2.05 -10.60 1.50 -15.85 -0.45 -4.20 -1.95 -12.10 -3.50 -18.65 -1.30 -5.40 -2.60 -12.35 -3.75 -20.30 -1.20 -8.10 -1.35 -10.25 -1.30 -22.85 0.10 -19.85 1.35 -29.85 6.10 -48.85 l2.60 -10.35 -1.45 -6.45 c-1.35 -5.95 -1.45 -7.15 -1.40 -15.70 0.10 -10.10 -0.10 -9.20 4.45 -21.25 2.70 -7.15 3.40 -11.35 3.40 -20 0 -10.30 -1.10 -17.35 -3.65 -24 -1.10 -2.75 -2.10 -5.65 -2.30 -6.40 -0.15 -0.80 -0.50 -1.25 -0.70 -1 -0.75 0.75 -5.55 15.80 -7.25 22.75 -1.70 6.80 -1.70 6.90 -1.40 15.25 0.30 9 -0.30 14.60 -2.40 21.90 -2.30 7.95 -3 9.50 -9.25 21.25 -4.85 9.15 -7.90 16 -8.45 19.05 -0.30 1.50 -0.10 2.25 1 4 2.70 4.20 3.60 7.10 4.20 13.45 0.30 2.95 1 5.80 2.30 9.25 2.30 6 2.75 9.20 1.55 11 -0.75 1.10 -1.15 1.25 -3.95 1.25 -3.15 0 -5.20 -0.80 -7.65 -3.10 l-1.10 -0.95 -0.20 3.40 c-0.15 1.85 -0.05 5 0.15 6.90 0.50 4.30 3.20 12.55 4.70 14.35 2.50 2.95 2.95 10.25 0.75 12 -2.35 1.90 -6.35 0.70 -9.30 -2.80 -1.05 -1.25 -2.30 -2.30 -2.75 -2.30 -0.75 0 -4.10 -3.55 -7.05 -7.50 -2.50 -3.30 -4.50 -8.05 -5.80 -13.50 -0.30 -1.25 -0.65 -2.80 -0.85 -3.50 -0.15 -0.70 -0.40 -7.95 -0.55 -16.10 -0.30 -16.10 -0.30 -16.15 2.65 -25.45 l1.35 -4.20 -0.15 -22.25 c-0.15 -24.30 0.10 -28.30 2.55 -38.50 1.15 -4.95 4.45 -14.85 5.40 -16.25 0.90 -1.35 1 -2.35 1 -9.20 0 -4.25 0.20 -9.65 0.50 -12 2 -17.40 3.10 -29.95 3.25 -37.55 0.15 -5.25 0.45 -7 3.65 -19.75 1.95 -7.70 4 -15.30 4.60 -16.90 1.25 -3.35 5.05 -9.25 7.75 -12 3.25 -3.35 7.05 -4.60 18.50 -6.10 14.55 -1.90 17.60 -2.60 22.40 -5.10 4.60 -2.45 7.40 -5.60 9.35 -10.80 2.65 -6.75 2.60 -6.85 -0.85 -10.50 -3.50 -3.65 -6.10 -7.60 -8.70 -13.10 -3.50 -7.50 -4.45 -11.60 -3.65 -15.70 0.30 -1.45 0.50 -1.55 2.40 -1.55 l2.10 0 1.45 4.85 c1.55 5.25 4.80 12.35 7.25 15.90 0.80 1.15 2.95 3.80 4.80 5.75 l3.35 3.65 -0.30 3.80 c-0.55 6.65 -2.80 13.55 -5.70 17.30 -2 2.65 -8 6.80 -11.55 7.95 -3.05 1.05 -9.15 2.10 -17.35 3.05 -11.40 1.35 -16.40 2.90 -19.05 5.85 -4 4.40 -7.45 11.60 -8.95 18.65 -0.85 4 -2.10 8.85 -4 15.75 -1.05 3.80 -1.45 6.95 -2.05 15.50 -0.65 9.90 -0.90 13.10 -2.20 25 -1.65 15.70 -2.05 20.35 -2.10 25 0 3.35 -0.30 5.60 -0.70 6.25 -1.30 2 -4.20 11.90 -6.05 20.75 -1.30 6.05 -1.35 6.90 -1.45 24.35 -0.10 21.30 -0.75 30.40 -2.55 37.40 -1.25 4.60 -1.35 6 -1.55 17.45 -0.15 11.75 -0.10 12.80 1 17.25 1 4.15 1.15 4.55 1.30 2.90 0.15 -1.90 0.15 -1.90 2.20 -1.75 l2.05 0.15 1.10 4 c1.10 4 3.05 8.80 2.50 6.25 -1.45 -6.90 -1.40 -15.35 0.10 -22 0.40 -1.80 0.90 -4.95 1.10 -7.05 0.20 -2.10 0.55 -4.05 0.75 -4.35 0.20 -0.35 1.25 -0.60 2.35 -0.60 l1.95 0 0 2.90 c0 2.10 0.35 3.60 1.25 5.40 1.30 2.60 4.25 5.95 3.55 4 -1.05 -2.95 -2.30 -8.80 -2.30 -10.80 0 -3.35 -1.25 -7 -4.05 -12.05 -2.35 -4.30 -3.15 -7.45 -2 -8.20 0.25 -0.15 0.65 -1 0.85 -1.90 1.25 -5.75 3.55 -11.20 9.70 -22.80 5.10 -9.60 7.25 -15.05 9.15 -23.40 0.95 -4.35 1.10 -6.15 1 -16 -0.05 -9 0.05 -11.15 0.60 -11.15 0.65 0 0.90 -0.75 1.55 -4.75 1 -6.50 5.10 -19.70 9.20 -29.75 4.95 -12.25 4.90 -12.10 7.45 -11.90 l1.80 0.15 0 2.75 c0 1.70 -0.45 3.85 -1.20 5.60 -1.15 2.80 -1.15 2.85 -0.30 6.75 0.50 2.15 1.65 6.05 2.65 8.65 3.25 8.70 4.60 17.70 4.60 30.25 0 11.75 -0.90 16.60 -5.15 28.25 -1.15 3.05 -1.95 6.55 -2.35 9.70 -0.65 5.40 -0.35 8 1.85 17.30 1.55 6.35 1.40 8.35 -1.10 18.80 -3.85 16.10 -4.90 22.25 -6.05 35.05 -1.10 12.20 -0.65 23.50 1.75 43.25 0.30 2.10 1.15 6.60 2 10 1.45 5.90 2.05 8.90 3.10 15.85 0.75 4.90 0.25 20.60 -0.80 24.80 -1.15 4.80 -1.15 10.50 0 12.75 1.40 2.70 0.80 10.50 -1.45 18.75 -2.95 10.65 -3.50 13.40 -4.35 20.30 -1.25 10.65 1.65 25.05 11.25 55.20 3.10 9.80 6.30 21.85 6.80 25.65 0.65 5 -0.05 10.85 -1.65 13.75 -0.95 1.70 -1 2.10 -0.45 4.10 0.95 3.55 0.70 8.55 -0.55 12.30 -1.30 3.85 -5.20 10.50 -8.20 14.05 -1.20 1.35 -2.15 2.50 -2.15 2.55 0 0.05 1.25 0 2.75 -0.05 1.50 -0.10 2.75 0 2.75 0.25 0 0.20 1.10 0.30 2.50 0.25 2.35 -0.20 2.50 -0.10 2.50 1 0 1.10 0.15 1.15 3.50 1.05 2.70 -0.05 3.75 -0.30 4.80 -1.10 1.60 -1.25 4.45 -1.40 4.90 -0.25 0.60 1.50 0.30 3.60 -0.70 4.85 -0.55 0.70 -1 1.40 -1 1.50 0 0.45 3.55 -0.20 5.85 -1 3.25 -1.20 3.60 -2.10 2.85 -7.15 -0.95 -6.25 -0.90 -23.80 0.05 -26.50 0.75 -2.05 0.70 -2.25 -0.45 -4.20 -0.65 -1.15 -1.45 -3.40 -1.75 -5.05 -0.35 -1.65 -1.15 -4.25 -1.80 -5.75 -2.15 -5 -2.15 -11.55 0.05 -30.75 0.40 -3.55 1.20 -10.45 1.75 -15.25 0.55 -4.80 1.20 -10.90 1.45 -13.50 0.30 -2.60 0.85 -7.90 1.25 -11.75 1 -9.70 0.95 -19.45 -0.25 -29.75 -1.75 -15.35 -1.30 -21.20 2.20 -31 2.10 -5.80 2.75 -8.95 3.30 -16.25 0.25 -3.85 0.70 -8.75 1 -10.85 0.25 -2.15 0.75 -5.75 1.05 -8 1.05 -8.05 3.40 -19.45 5.95 -28.65 0.75 -2.75 2.10 -7.70 3 -11 2.10 -7.80 4 -13.85 4.65 -14.60 0.60 -0.85 3.60 -0.85 4.25 0 0.65 0.75 2.15 7 3.85 16.30 1.15 6.20 8.90 38.05 10.25 42.30 0.30 0.85 1.55 5.10 2.80 9.50 2.85 10.10 3.20 14.15 1.75 20.75 -1.25 5.65 -1.30 6.80 -0.30 10.25 0.65 2.25 0.70 3.50 0.25 7.85 -2.30 21.55 -3.05 42.05 -2 54.65 0.30 3.30 0.85 9.95 1.25 14.75 0.40 4.80 1.10 10.20 1.50 12 1.70 7.40 3.25 20.95 3.25 29.05 0 6.20 -0.60 8.70 -3.20 13.70 -1.25 2.35 -1.30 2.65 -0.75 5.50 0.70 3.60 0.30 19.70 -0.60 25.15 -0.55 3.20 -0.50 3.90 0.20 5.35 0.90 1.90 2.65 3 5.60 3.50 1.10 0.20 2.40 0.45 2.95 0.60 0.80 0.20 0.75 0 -0.40 -1.45 -1.35 -1.85 -1.70 -4.25 -0.80 -5.95 0.70 -1.30 3.90 -1.35 4.35 -0.05 0.15 0.45 0.90 1.50 1.60 2.25 l1.30 1.40 0.25 -1.15 c0.35 -1.45 3 -1.85 4.80 -0.65 1.05 0.70 1.20 0.70 1.20 0 0 -0.55 0.60 -0.75 2.50 -0.75 2.20 0 2.50 -0.10 2.50 -1.05 0 -0.95 0.25 -1.05 2.25 -0.85 l2.20 0.15 -1.70 -1.75 c-2.25 -2.30 -4.20 -6.85 -6.20 -14.25 -0.90 -3.30 -1.85 -6.80 -2.15 -7.85 -0.30 -1 -0.40 -3 -0.20 -4.50 0.30 -2.50 0.20 -3 -1.45 -6.05 -2.05 -3.95 -2.25 -6.60 -0.80 -11.15 0.55 -1.60 1.20 -4.30 1.55 -5.95 1.70 -9.10 3.30 -16.15 5 -22 1 -3.50 4.80 -20.10 6.20 -27.25 1.70 -8.60 1.95 -13.40 1.55 -28.50 -0.55 -21.55 -0.60 -23 -1.20 -31.50 -0.50 -7.35 -0.40 -10.85 0.70 -21.25 0.20 -1.65 0.90 -5.70 1.55 -9.05 0.65 -3.30 1.40 -7.90 1.65 -10.25 1.10 -9.15 1.50 -12.35 2.05 -15.70 0.30 -1.90 0.75 -4.85 1 -6.50 2.75 -17.65 4 -28.85 4 -35.95 0 -7.40 -2.30 -19.35 -6.50 -33.80 -1.20 -4.15 -4 -15.45 -5.05 -20.50 -0.45 -2.15 -0.70 -7.75 -0.80 -16.75 -0.10 -14.25 -0.40 -16.90 -2.85 -25.10 -2.15 -7.05 -2.90 -11.65 -3.05 -18.90 -0.30 -14.20 2.55 -30.20 7.65 -43.05 l1 -2.50 -1.30 -2.75 c-0.75 -1.50 -2.10 -3.75 -3 -4.95 -1.30 -1.80 -1.60 -2.65 -1.50 -4.25 0.15 -1.90 0.25 -2 2 -2.15 3.85 -0.30 7.70 5.60 12.35 19.15 2.90 8.40 6.05 19.75 6.05 21.90 0 1 0.30 1.50 1 1.70 0.55 0.15 1 0.40 1 0.60 0 0.15 0.25 2.45 0.50 5.05 0.25 2.60 0.70 8.05 0.95 12.05 1.10 15.40 3.30 22.80 13.30 44.45 1.80 4 3.65 8.55 4.10 10.10 0.75 2.60 0.95 2.85 2.35 3 1.40 0.15 1.55 0.30 1.70 2.20 0.20 2.50 -1.10 5.55 -4.15 10 -1.25 1.80 -2.30 3.55 -2.30 3.90 -0.05 0.30 -0.10 3.15 -0.15 6.30 -0.05 6.05 -0.40 7.25 -3.40 12 l-1.15 1.75 1.50 -0.95 c4.70 -2.95 6.25 -5.10 6.25 -8.50 0 -1.80 0 -1.80 2.25 -1.80 2.15 0 2.25 0.05 2.25 1.45 0 0.80 0.35 2.30 0.80 3.35 0.65 1.45 0.90 4.15 1.10 10.50 0.25 9.55 -0.15 13.10 -2.40 19.65 -1.70 4.85 -1.35 4.75 1.40 -0.45 2.30 -4.30 3.90 -9.35 4.40 -13.90 l0.35 -3.15 2.05 0.15 2.05 0.15 -0.05 3.90 c0 4.60 0.45 4.15 2.40 -2.40 1.05 -3.65 1.15 -4.55 0.80 -9.75 -0.60 -9.55 -1.70 -18.70 -3.40 -28 -1.20 -6.75 -1.90 -14.10 -2.50 -27.75 -1.40 -30.10 -3.30 -41.50 -8.35 -50.15 -1.95 -3.40 -3.30 -12.30 -5.15 -33.60 -0.55 -6.45 -1.15 -12.25 -1.25 -12.85 -0.40 -1.85 -1.65 -16.15 -1.70 -19.65 -0.05 -1.80 -0.30 -3.90 -0.55 -4.75 -0.25 -0.80 -0.80 -3.95 -1.25 -7 -2.05 -14.60 -3.50 -18.55 -9.10 -24.85 -3.60 -4.10 -9.65 -9.35 -12.20 -10.70 -3.10 -1.60 -5.85 -2.25 -16.10 -3.95 -11.30 -1.90 -14.90 -2.75 -18.35 -4.50 -6.45 -3.25 -9.50 -9.70 -9.50 -20.20 0 -7.20 0.45 -8.90 3.50 -12.85 3.55 -4.65 7.85 -14.05 9.20 -20.30 0.35 -1.50 1.15 -1.70 4.30 -1.05 l1.65 0.30 -0.30 2.80 c-0.55 5.90 -5.25 16.85 -9.75 22.75 -1.25 1.70 -2.50 3.20 -2.75 3.35 -0.85 0.60 -0.05 9 1.15 12.10 1.35 3.40 4.25 6.55 7.15 7.80 2.80 1.20 9.40 2.75 15.85 3.75 16.75 2.60 18.60 3.40 27.20 11.75 5.10 5 8.05 8.65 10 12.40 2 3.95 3.20 11.30 5.05 31.40 0.70 7.45 1.50 15.65 1.75 18.25 0.30 2.60 0.75 7 1 9.75 2.50 27.15 3.35 33.70 4.50 35 2.05 2.30 5.40 11.15 6.70 17.75 1.55 7.95 2.65 19.65 3.05 33.25 0.15 4.95 0.35 12.20 0.50 16.15 0.10 3.90 0.30 7.30 0.40 7.50 0.55 0.85 2.80 13.25 3.30 18.10 0.35 2.90 0.80 6.85 1.05 8.75 0.25 1.95 0.60 6.35 0.80 9.85 0.40 7.85 -0.40 11.70 -3.70 17.90 -2.65 5 -7.95 12.35 -9.20 12.75 -0.50 0.20 -1.55 1.30 -2.40 2.50 -0.80 1.20 -2.35 2.85 -3.35 3.70 -1.60 1.35 -2.30 1.55 -4.70 1.55 -2.05 0 -3 -0.25 -3.50 -0.85 -1 -1.15 -0.85 -7.95 0.15 -9.90 0.45 -0.80 1.60 -4.40 2.60 -7.95 1.50 -5.45 1.80 -7.30 1.80 -11.50 l0 -4.95 -1.10 1 c-2.10 1.90 -4.25 2.65 -7.55 2.65 -4.40 0 -5.35 -1 -5.35 -5.70 0 -3.50 0.60 -5.15 2.85 -8.20 1.20 -1.60 1.25 -2 1.20 -8.15 -0.10 -7.05 0 -7.40 3.30 -12.15 0.90 -1.30 1.65 -2.85 1.65 -3.35 0 -2.25 -2.55 -8.35 -5.80 -13.70 -3.05 -5.15 -5.05 -9.25 -7.80 -16.15 -4.30 -10.90 -6 -19.75 -6.70 -34.60 -0.20 -4.60 -0.65 -8.35 -1.20 -10.25 -0.50 -1.65 -1.50 -5.15 -2.20 -7.75 -2.20 -8 -5.20 -16.80 -5.45 -16 -1.70 4.80 -3.70 12.70 -4.95 19.75 -1.90 10.70 -1.20 24.35 1.60 30.55 2.10 4.65 2.70 9.40 2.85 21.90 0.15 16.60 1.05 22.40 6.75 42.30 4.65 16.25 5.40 21.45 5.40 36.95 0 10.35 -0.85 23.95 -1.70 27.60 -0.20 0.65 -0.75 4.20 -1.30 7.85 -0.55 3.60 -1.45 9.60 -2.05 13.25 -0.55 3.60 -1.55 10.30 -2.25 14.85 -0.70 4.55 -1.70 11.30 -2.25 15 -1.25 8.20 -1.40 13.50 -0.55 20.75 1.40 12.65 1.90 50.55 0.65 57.25 -2.35 13.05 -5.85 27.25 -11.05 44.50 -0.75 2.60 -1.65 6.10 -2 7.75 -0.30 1.65 -0.85 4.45 -1.25 6.20 l-0.70 3.20 1.60 3.30 c1.35 2.80 1.60 3.95 1.70 7.50 0.10 3.25 0.60 5.75 2.20 11 2.55 8.30 3.70 10.65 6.70 13.55 3.25 3.15 4.25 5.25 4.25 9.20 0 2.90 -0.15 3.35 -1.30 4.25 -0.75 0.60 -1.55 1.05 -1.80 1.05 -0.30 0 -1.05 0.45 -1.75 1 -0.70 0.55 -1.90 1 -2.60 1 -0.75 0 -1.65 0.30 -1.95 0.65 -0.85 0.80 -8 1.40 -17.85 1.50 -9.90 0.10 -12.60 -0.55 -15.40 -3.70 -2.40 -2.65 -2.65 -4.95 -1.65 -14.65 0.90 -8.40 1.05 -19.60 0.30 -20.05 -0.25 -0.15 -0.50 -1.95 -0.50 -4 0 -3.15 0.20 -4.05 1.55 -6.55 2.45 -4.60 3.45 -8 3.45 -11.70 0 -4.25 -1.90 -17.50 -3.85 -26.50 -0.45 -2.05 -0.95 -5.75 -1.15 -8.25 -0.25 -2.45 -0.80 -7.85 -1.30 -12 -1.15 -10.20 -1.15 -38 0 -49.25 1.80 -16.95 1.85 -17.95 1.30 -19 -0.30 -0.55 -0.65 -2.45 -0.85 -4.20 -0.25 -3.05 -0.10 -4.25 1.65 -11.70 0.80 -3.40 0.75 -3.75 -2.90 -15.60 -3.30 -10.80 -9.80 -36.85 -11.60 -46.75 -1.40 -7.45 -1.35 -7.35 -2.05 -4.75 -6.10 22.20 -7.90 30.35 -9.70 44.50 -0.35 2.35 -0.80 5.70 -1.05 7.50 -0.30 1.80 -0.85 6.40 -1.20 10.25 -0.65 6.15 -1.05 8 -3.50 15.15 l-2.75 8.15 0.50 4.35 c0.25 2.40 0.95 8.15 1.45 12.75 1.10 9.20 1.30 21.85 0.50 28.80 -0.25 2.35 -0.95 8.60 -1.50 13.80 -1.10 10.45 -1.70 15.50 -2.85 23 -1.15 7.80 -1.55 11.45 -2.15 19 -0.75 8.85 -0.55 12.15 0.85 13.95 0.60 0.70 1.35 2.50 1.65 3.95 0.35 1.40 1.20 3.95 1.85 5.55 1.05 2.50 1.20 3.45 0.95 6.50 -0.80 10.25 -0.85 12.95 -0.25 19.95 0.40 4.20 0.70 9.65 0.70 12.20 l-0.05 4.60 -1.70 1.50 c-2.95 2.55 -8.35 3.60 -17 3.15 -0.40 0 -2.65 0.05 -5 0.15 -2.35 0.10 -5.50 -0.05 -7 -0.25z"/>
  <path d="M298.50 68.75 c0 -1.25 -0.20 -2.25 -0.50 -2.25 -0.75 0 -0.60 -8.20 0.20 -12 1 -4.65 2.60 -9.10 5.20 -14.25 5.05 -10.15 13.85 -18.40 22.65 -21.30 3.30 -1.05 4.55 -1.20 11.45 -1.15 6.65 0 8.20 0.20 11 1.15 10 3.45 19.10 12.60 24.15 24.25 3.50 8.10 5.35 17.45 4.50 22.30 l-0.40 2.25 -2.30 0.15 -2.30 0.15 -0.35 -3.65 c-0.90 -9.10 -4.40 -18.55 -9.75 -26.45 -4.25 -6.40 -12.65 -12.30 -20.05 -14.20 -11.70 -3 -25.70 5.75 -33.25 20.75 -3.60 7.20 -5.15 12.85 -6.50 24.15 -0.30 2.30 -0.35 2.35 -2.05 2.35 -1.70 0 -1.70 0 -1.70 -2.25z"/>
 </g>
 <g fill="#ffffff">
  <path d="M0 339 l0 -339 340 0 340 0 0 339 0 339 -340 0 -340 0 0 -339z m303.25 318.65 c1.65 -0.80 1.90 -0.80 3.15 -0.05 0.75 0.45 2.15 0.75 3.20 0.65 6.10 -0.50 8.65 -1.30 11.10 -3.45 1.30 -1.15 1.45 -1.60 1.45 -4.40 0 -1.75 -0.20 -5.05 -0.45 -7.40 -0.55 -5.30 -0.55 -21.45 0 -24.55 0.30 -1.90 0.15 -2.80 -0.85 -5.25 -0.65 -1.60 -1.50 -4.15 -1.85 -5.55 -0.30 -1.45 -1.10 -3.25 -1.65 -4 -1.65 -2.05 -1.65 -11.25 -0.10 -26.65 0.20 -1.80 0.45 -3.40 0.55 -3.55 0.20 -0.35 1 -5.65 1.70 -11.45 0.85 -6.90 1.90 -16.20 2.25 -19.50 0.15 -1.80 0.40 -3.90 0.50 -4.75 1.35 -10.40 1.35 -28.25 0 -35 -0.10 -0.55 -0.35 -2.45 -0.50 -4.25 -0.20 -1.80 -0.40 -3.55 -0.55 -3.95 -0.10 -0.35 -0.35 -2.60 -0.50 -5 -0.25 -4.20 -0.20 -4.45 2.50 -12.35 2.90 -8.60 3.15 -9.60 3.50 -14.70 0.25 -3.40 0.50 -5.55 1.30 -11 0.25 -1.80 0.70 -5.15 1.05 -7.50 0.75 -6.10 2.40 -15.75 3.25 -19.35 1.65 -7.35 2.35 -10.10 3.20 -13.15 2.30 -8.15 4.50 -16.95 4.80 -18.75 0.60 -4 1.25 -3.25 1.95 2.25 1.50 11.80 8 38.95 14 58.75 3.30 10.80 3.30 11 0.75 21.50 -0.50 2.15 -0.10 6.10 0.80 7.85 0.65 1.25 0.70 2.10 0.25 4.80 -0.25 1.85 -0.60 4.80 -0.80 6.60 -0.15 1.80 -0.35 3.80 -0.45 4.50 -0.15 0.70 -0.35 3.15 -0.55 5.50 -0.15 2.35 -0.40 5.15 -0.50 6.25 -0.35 2.70 -0.40 34.10 -0.10 34.60 0.15 0.25 0.40 2.50 0.60 5.10 0.20 2.55 0.45 5.15 0.55 5.75 0.15 0.55 0.45 3.40 0.70 6.30 0.25 2.90 0.70 6.25 0.95 7.50 1.95 8.65 4.10 23.85 4.20 29 0.05 4.75 -0.75 7.80 -3.50 12.90 -1.70 3.30 -2.20 6.85 -1.10 7.95 0.40 0.40 0.55 3.20 0.45 8.75 -0.10 8.55 -0.10 8.90 -0.80 14.90 -0.80 6.95 -0.55 8.50 1.60 10.90 2.15 2.40 4.80 3.40 10.30 3.95 2.85 0.25 3.60 0.15 4.35 -0.55 0.80 -0.70 1.15 -0.75 2.05 -0.30 1.85 1 3.05 1 5.10 0 1.45 -0.70 2.30 -0.85 2.95 -0.50 1.55 0.85 4.35 0.60 5.45 -0.50 0.70 -0.70 1.40 -0.90 2.15 -0.75 0.75 0.20 1.60 -0.05 2.45 -0.70 0.70 -0.60 1.50 -1.05 1.80 -1.05 0.25 0 1.05 -0.45 1.80 -1.05 2.55 -2 1.35 -6.30 -2.95 -10.45 -3.15 -3.05 -4 -4.85 -7 -14.75 -2.10 -6.90 -2.50 -8.75 -2.10 -9.90 0.60 -1.75 -0.15 -4.85 -2.15 -8.75 -1.25 -2.45 -1.40 -3.20 -1 -4.65 0.25 -0.95 0.55 -2.50 0.70 -3.45 0.10 -0.95 0.60 -3 1 -4.50 0.45 -1.50 0.80 -3.25 0.80 -3.90 0 -0.65 0.65 -3.25 1.45 -5.75 4 -12.35 9.50 -34.10 10.35 -40.60 0.15 -1.10 0.35 -2.35 0.50 -2.75 1.85 -5.45 0.80 -54 -1.35 -62.10 -0.25 -1.05 -0.35 -2.40 -0.25 -3 0.15 -0.65 0.40 -2.70 0.55 -4.60 0.15 -1.90 0.35 -3.95 0.50 -4.50 0.20 -1.05 0.75 -5.45 0.95 -7.80 0.10 -0.70 0.40 -2.35 0.70 -3.75 0.30 -1.35 0.65 -3.50 0.80 -4.75 0.35 -2.80 1.15 -8.35 1.80 -12 0.25 -1.50 0.60 -3.75 0.75 -5 0.15 -1.25 0.75 -4.95 1.25 -8.25 3.65 -22.85 4 -26.50 4 -40.55 0 -13.60 -0.90 -19.45 -5.40 -35.20 -5.75 -20 -6.65 -25.80 -6.80 -42.25 -0.15 -12.60 -0.75 -17.50 -2.80 -21.95 -1 -2.15 -1.05 -2.40 -2.25 -9.55 -1.40 -8.40 -0.30 -22.25 2.75 -34 1.50 -5.70 4.05 -13.90 4.55 -14.45 0.20 -0.25 0.60 0.45 0.90 1.50 0.30 1.10 1.45 4.75 2.55 8.15 1.10 3.40 2.55 8.35 3.30 11 0.70 2.65 1.70 6.15 2.20 7.80 0.55 1.80 1.05 5.65 1.25 9.50 0.50 9.90 1.30 17.70 2.05 20.35 0.15 0.50 0.40 1.50 0.50 2.25 1.20 6.70 6.90 20.45 11.90 28.90 2.60 4.30 3.95 7.25 5.05 10.80 0.45 1.50 1.05 3.20 1.30 3.85 0.50 1.20 0.60 0.95 -3.85 8.10 l-1.70 2.70 0.15 6.55 c0.10 6.35 0.05 6.55 -1.20 8.25 -3.20 4.20 -3.85 7.75 -1.85 9.85 2.55 2.75 9.05 0 11.75 -5 0.90 -1.60 0.90 -1.50 1.05 6.85 0.10 8.40 0.10 8.55 -1.70 15 -1 3.60 -2.15 7.20 -2.55 8 -1 1.90 -1.10 5.90 -0.20 6.95 1.65 2.05 5.50 0.05 8.55 -4.40 0.85 -1.20 1.90 -2.30 2.40 -2.50 1.20 -0.40 6.45 -7.65 9.10 -12.50 4.15 -7.70 4.45 -11.05 2.50 -29.25 -1.10 -10.10 -1.40 -12 -3.50 -21.50 -0.65 -3 -0.95 -6.35 -0.95 -11.50 -0.10 -13.85 -1.10 -31.85 -2.35 -40.75 -1.35 -9.50 -4.95 -20.45 -7.80 -23.55 -0.55 -0.65 -1.05 -2.05 -1.20 -3.50 -0.10 -1.35 -0.30 -3.10 -0.45 -3.95 -0.15 -0.80 -0.35 -2.75 -0.50 -4.25 -0.15 -1.50 -0.40 -3.65 -0.55 -4.70 -0.15 -1.10 -0.35 -3.35 -0.45 -5 -0.40 -5 -1.25 -14.30 -1.75 -18.55 -0.25 -2.20 -0.60 -5.45 -0.80 -7.25 -0.15 -1.80 -0.35 -3.60 -0.45 -4 -0.15 -0.85 -0.65 -6.10 -1 -10.75 -0.15 -1.65 -0.35 -4.10 -0.50 -5.50 -0.10 -1.35 -0.35 -4.05 -0.50 -6 -0.45 -5.30 -1.65 -13.15 -2.50 -16.40 -1.45 -5.65 -4.35 -9.90 -11.55 -16.90 -8.60 -8.35 -10.45 -9.15 -27.20 -11.75 -6.45 -1 -13.05 -2.55 -15.85 -3.75 -4.65 -2 -8 -7.45 -8.45 -13.95 -0.10 -1.80 -0.30 -4.30 -0.45 -5.60 -0.10 -1.50 0.05 -2.60 0.40 -3 4.95 -5.10 10.90 -16.75 12.55 -24.70 0.30 -1.40 0.20 -1.60 -0.95 -1.80 -1.05 -0.20 -1.30 -0.05 -1.55 1.05 -1.35 6.15 -5.65 15.60 -9.20 20.25 -2.90 3.80 -3.50 5.70 -3.50 11.35 0 8.90 3.45 15.65 9.50 18.70 3.45 1.75 7.05 2.60 18.35 4.50 10.25 1.70 13 2.35 16.10 3.95 2.55 1.35 8.60 6.60 12.20 10.70 5.60 6.30 7.05 10.25 9.10 24.85 0.45 3.05 1 6.20 1.25 7 0.25 0.85 0.60 3.85 0.75 6.75 0.30 5.90 0.70 11.50 1 13.85 0.35 2.60 1.20 10.20 1.50 13.40 0.15 1.65 0.50 5.70 0.75 9 1.30 15.20 2.90 24.80 4.65 27.85 1.70 2.85 3.10 6.55 4.35 11.30 0.90 3.35 1.35 5.65 2.20 11.85 0.60 4.15 1.60 19.20 2.05 30.75 0.35 9.05 1.20 18.40 2.10 23 1.40 7.25 1.95 11.05 2.90 20.40 0.10 1.30 0.35 3.60 0.50 5.10 0.95 9.10 0.85 11.40 -0.70 16.45 -0.85 2.65 -2.45 6.40 -3.60 8.30 -4.45 7.55 -6.15 9.35 -4.40 4.70 2 -5.20 3.45 -14.10 2.45 -14.70 -0.80 -0.50 -0.85 -0.35 -1.20 3 -0.70 6.85 -5.15 17 -9.05 20.65 -3.45 3.20 -3.60 1.75 -0.55 -7.20 3 -8.70 3.30 -10.70 3.05 -19.70 -0.15 -7.05 -0.80 -11 -1.70 -11 -0.20 0 -0.25 -0.80 -0.15 -1.75 0.15 -1.30 0 -1.75 -0.55 -1.75 -0.50 0 -0.80 0.70 -0.95 2.45 -0.30 3 -1.65 4.95 -4.75 6.95 -3.35 2.15 -4.90 2.45 -5.65 1.15 -0.55 -1.10 -0.35 -1.70 2.85 -7.65 1.25 -2.40 1.50 -4.35 1.15 -10.90 -0.15 -3.10 0.35 -4.30 3.45 -8.70 2.50 -3.60 3.90 -7.15 3.05 -7.95 -0.45 -0.45 -0.75 -0.35 -1.35 0.55 -0.45 0.60 -0.95 1.10 -1.20 1.10 -0.25 0 -0.40 -0.50 -0.35 -1.10 0.15 -1.95 -1.45 -6.45 -4.90 -13.95 -10.25 -22.30 -12.45 -29.90 -13.45 -46.70 -0.20 -2.75 -0.50 -7.15 -0.75 -9.75 -0.25 -2.60 -0.50 -4.90 -0.50 -5.05 0 -0.20 -0.45 -0.45 -1 -0.60 -0.70 -0.20 -1 -0.70 -1 -1.70 0 -4.05 -7.05 -26.30 -10.55 -33.30 -2.20 -4.35 -5.70 -8.30 -6.60 -7.40 -0.40 0.40 -0.10 1.15 1.05 2.65 1.55 2.05 5.10 8.90 5.10 9.80 0 0.20 -0.45 1.30 -0.95 2.40 -1.90 3.95 -5.80 17.20 -6.75 22.95 -1 6.10 -1.35 10.90 -1.35 17.70 0 8.30 0.55 12.15 2.85 19.70 2.50 8.45 2.80 10.80 2.90 25.10 0.05 8.95 0.30 14.60 0.75 16.75 1 4.95 3.80 16.30 5.05 20.50 2.40 8.35 4.95 19.05 5.70 24.40 1.45 9.85 0.65 25.50 -2.20 42.10 -0.25 1.50 -0.70 4.20 -0.95 6 -0.30 1.80 -0.75 4.85 -1.05 6.75 -0.55 3.35 -0.95 6.55 -2.05 15.70 -0.25 2.35 -1 6.95 -1.65 10.25 -2.10 10.70 -2.90 22.25 -2.05 29.55 1.25 10.80 1.30 56.15 0 58.20 -0.10 0.20 -0.30 1.10 -0.45 2.05 -0.55 3.55 -4.85 22.45 -6.30 27.75 -0.85 3.05 -1.70 6.40 -1.95 7.50 -1.40 6 -1.95 8.50 -3.05 14.50 -0.35 1.65 -0.90 4 -1.30 5.15 -1.40 4.30 -1.40 5.40 0.20 8.25 2.20 3.85 2.85 6.40 2.15 8.40 -0.35 1.10 -0.40 2.10 -0.10 3.15 0.30 0.85 1.20 4.25 2.10 7.55 2.30 8.60 4.20 12.55 7.40 15.30 4 3.40 5.35 7.50 2.70 7.85 -0.65 0.10 -1.15 -0.05 -1.15 -0.35 0 -0.55 -4.40 -4.05 -5.05 -4.05 -1.05 0 -0.25 1.35 1.90 3.25 1.45 1.25 2.20 2.30 1.95 2.65 -0.70 1.15 -2.35 0.55 -4.45 -1.65 -1.50 -1.55 -2.60 -2.25 -3.50 -2.25 -1.55 0 -1.85 1.25 -0.45 1.70 1.35 0.45 3.75 3.15 3.40 3.75 -0.50 0.75 -3.45 0.70 -4.35 -0.05 -0.40 -0.35 -1.35 -1.50 -2.10 -2.50 -1.75 -2.40 -3.25 -3.25 -3.65 -2.15 -0.20 0.50 0.25 1.40 1.25 2.45 1.90 1.95 1.95 2.55 0.20 3.15 -2.15 0.70 -3.05 0.25 -4.05 -2 -0.55 -1.15 -1.55 -2.65 -2.30 -3.30 -0.70 -0.70 -1.30 -1.50 -1.30 -1.85 0 -1.15 -0.95 -1.25 -1.50 -0.20 -0.50 0.90 -0.30 1.40 1.20 3.35 2 2.55 2.15 3.25 1 4.20 -0.60 0.50 -1.25 0.50 -3.10 0.05 -1.30 -0.30 -3.15 -0.70 -4.10 -0.90 -2.85 -0.55 -4.45 -1.60 -5.55 -3.75 -1 -2.05 -1 -2.15 -0.20 -6.90 1 -5.95 1.45 -20.45 0.70 -23.55 -0.90 -3.60 -0.70 -5.25 0.75 -8.10 2.95 -5.55 3.35 -7.45 3.05 -14.85 -0.35 -9.90 -1.75 -20.70 -3.75 -28.55 -0.25 -0.95 -0.60 -4.45 -0.75 -7.75 -0.20 -3.30 -0.45 -6.45 -0.55 -7 -1.30 -6.80 -1.30 -39.30 0 -52.75 0.10 -1.25 0.40 -4.05 0.55 -6.25 0.20 -2.20 0.45 -4.45 0.55 -4.95 0.45 -2.40 0.25 -6.30 -0.50 -9.05 -0.85 -3.05 -0.80 -4 0.55 -10 1.30 -6.05 1 -9.65 -1.55 -18.85 -1.25 -4.45 -2.50 -8.80 -2.80 -9.65 -1.35 -4.20 -8.75 -34.50 -10 -41.25 -3.10 -16.05 -4.05 -19.05 -5.35 -17.40 -0.65 0.80 -2.55 6.80 -4.65 14.65 -0.90 3.30 -2.25 8.25 -3 11 -2.05 7.35 -2.35 8.75 -3.95 17 -1.35 6.80 -1.90 10.55 -2.80 18 -0.20 1.40 -0.40 3.20 -0.50 4 -0.15 0.85 -0.45 4.65 -0.75 8.50 -0.60 7.50 -1.10 10 -3.50 16.90 -2.60 7.50 -3 10 -2.80 16.85 0.15 3.45 0.35 6.80 0.45 7.50 1.45 7.35 1.65 27.90 0.40 38.25 -0.25 2.20 -0.60 5.35 -0.75 7 -0.20 1.65 -0.40 3.90 -0.55 5 -0.10 1.10 -0.35 3.35 -0.50 5 -0.15 1.65 -0.40 3.70 -0.50 4.55 -0.45 3.25 -2.10 17.25 -2.50 21.20 -0.10 1.25 -0.35 3.70 -0.55 5.50 -0.20 1.80 -0.35 5.75 -0.30 8.85 0 4.85 0.20 5.95 1.30 8.50 0.70 1.60 1.50 4.25 1.85 5.90 0.30 1.65 1.10 3.90 1.75 5.05 1.40 2.35 1.50 4.20 0.45 7.25 -1.40 3.85 -0.65 24.85 1 29.05 0.45 1.15 -1.55 3.70 -3.45 4.45 -0.85 0.30 -3.10 0.85 -5 1.15 -3.25 0.60 -3.50 0.60 -4.60 -0.40 l-1.20 -1.05 1.70 -2.15 c1.80 -2.25 1.95 -4 0.30 -3.10 -1.50 0.80 -4 4.15 -4 5.30 0 1.10 -0.20 1.20 -4.35 1.90 -2.60 0.45 -1.90 -2.30 0.90 -3.70 2.30 -1.20 2.50 -2 0.60 -2 -2 0 -4.60 1.80 -5.25 3.55 -0.45 1.35 -0.70 1.50 -2.35 1.35 -2.80 -0.25 -2.70 -1.75 0.30 -4.30 2.55 -2.20 2.60 -3.10 0.15 -2.10 -1.50 0.65 -4.50 3.60 -4.50 4.50 0 0.65 -2.85 0.65 -3.25 0 -0.50 -0.80 1.30 -3 3.05 -3.75 2.25 -0.90 2.25 -2 0.10 -1.55 -1.05 0.15 -2.35 1.05 -3.45 2.30 -1 1.10 -2.10 2 -2.40 2 -0.30 0 -0.55 -0.95 -0.55 -2.40 0 -2.20 0.20 -2.60 2.95 -5.60 3.50 -3.85 7.65 -10.30 9.45 -14.60 1.45 -3.65 1.75 -8.15 0.75 -11.10 -0.75 -2.25 -0.45 -4.75 0.90 -7 1.25 -2.25 1.85 -7.15 1.35 -11.15 -0.45 -3.15 -3.80 -15.70 -6.70 -24.90 -5.80 -18.30 -9.70 -33 -10.90 -41.25 -0.70 -4.90 -0.85 -12.65 -0.35 -17 0.85 -6.90 1.40 -9.55 4.30 -20.25 2.25 -8.30 2.75 -13.35 1.45 -15.75 -1.30 -2.55 -1.40 -9.25 -0.15 -14.85 1.10 -4.70 1.60 -18.55 0.85 -23.40 -0.80 -5.70 -1.50 -9.35 -2.95 -15.15 -0.80 -3.40 -1.70 -7.95 -1.95 -10.10 -0.30 -2.20 -0.75 -5.85 -1 -8.10 -1.05 -8.60 -1.25 -12.45 -1.25 -23.40 0 -18.60 1.15 -27.40 6.55 -49.75 2.05 -8.65 2.20 -11.45 0.80 -17 -3 -11.95 -2.70 -19.65 1.15 -30 3.75 -10 4.30 -13.10 4.50 -24.50 0.15 -8.75 -0.40 -15.40 -1.75 -21 -0.30 -1.35 -0.65 -2.85 -0.75 -3.35 -0.10 -0.45 -0.95 -2.90 -1.90 -5.50 -0.95 -2.55 -2.20 -6.90 -2.75 -9.60 l-1.05 -4.95 1.20 -2.90 c1.45 -3.65 1.95 -5.75 1.35 -6.15 -0.95 -0.60 -1.65 0.70 -6.10 11.70 -4.10 10.05 -8.20 23.25 -9.20 29.75 -0.65 3.95 -0.90 4.75 -1.45 4.75 -0.45 0 -0.60 2.95 -0.60 11.10 0 9.70 -0.15 11.80 -1.10 16.05 -1.90 8.35 -4.05 13.80 -9.15 23.40 -2.70 5.15 -5.55 10.75 -6.30 12.50 -1.45 3.45 -3.20 8.75 -3.20 9.65 0 0.30 -0.35 1.20 -0.75 1.95 -0.70 1.35 -0.60 1.60 1.75 5.85 2.80 5.10 3.85 8.30 4.25 13.40 0.25 3.20 0.85 5.30 4.05 14.75 0.45 1.30 -0.80 1.05 -3.50 -0.70 -4.15 -2.75 -6.85 -7.65 -6.55 -11.80 0.15 -2.10 -0.30 -2.75 -1.05 -1.55 -0.20 0.30 -0.55 2.25 -0.75 4.35 -0.20 2.10 -0.75 5.40 -1.20 7.30 -2.15 9.65 -0.35 22.25 4.35 29.50 1.75 2.80 2.65 6.25 1.65 6.25 -1 0 -4.40 -4 -6.35 -7.50 -2.30 -4.15 -3.70 -7.65 -5.15 -12.70 -1.35 -4.85 -2.25 -5.50 -2.25 -1.65 0 3.05 1.85 9.35 3.80 12.80 1.65 3 1.15 3.15 -0.95 0.25 -2.95 -4.10 -5.70 -10.20 -7.15 -15.95 -1.25 -5.10 -1.35 -6.30 -1.45 -16.75 -0.10 -11.90 0.10 -13.80 2 -21.75 1.65 -7 2.25 -16.05 2.45 -37.50 0.20 -17.65 0.25 -18.75 1.50 -24.50 1.70 -8 4.60 -17.95 5.85 -20.35 0.30 -0.55 0.60 -3.25 0.70 -6.05 0.15 -4.30 1.20 -16.55 2 -22.85 0.20 -1.75 1.05 -9.95 1.50 -14.75 0.45 -4.30 0.70 -7.80 1 -14 0.35 -7.65 0.55 -9.05 2.10 -14.50 1.85 -6.85 3.10 -11.65 3.90 -15.50 1.50 -7.05 4.95 -14.25 8.95 -18.65 2.65 -2.95 7.65 -4.50 19.05 -5.85 8.20 -0.95 14.30 -2 17.35 -3.05 3.55 -1.15 9.55 -5.30 11.55 -7.95 2.55 -3.30 4.75 -9.45 5.60 -15.60 l0.35 -2.55 -3.30 -3.60 c-1.85 -2 -4 -4.60 -4.80 -5.75 -2.45 -3.55 -5.70 -10.65 -7.25 -15.85 -0.80 -2.70 -1.75 -4.90 -2.05 -4.90 -1.20 0 -1.30 3.60 -0.15 7 2.55 7.95 6.85 15.35 11.70 20.50 l3.10 3.25 -0.35 3 c-0.20 1.65 -1.10 4.85 -1.95 7.10 -2 5.20 -4.80 8.35 -9.40 10.80 -4.80 2.50 -7.85 3.20 -22.40 5.10 -11.45 1.50 -15.25 2.75 -18.50 6.10 -2.70 2.75 -6.50 8.65 -7.75 12 -0.60 1.60 -2.65 9.10 -4.50 16.65 -3.25 12.85 -3.45 14.20 -3.70 20.75 -0.15 3.85 -0.40 8.35 -0.55 10 -0.55 6 -1.30 13.55 -1.55 15.75 -1 8.15 -1.25 11.85 -1.55 20.75 -0.25 9.20 -0.35 10.15 -1.40 12 -1.10 1.85 -3.95 10.65 -5.15 15.75 -2.45 10.15 -2.70 14.40 -2.55 38.65 0.20 21.60 0.15 22.20 -0.90 25.35 -3.20 9.55 -3.25 10.10 -2.95 24.80 0.20 7.50 0.55 14.30 0.80 15.15 0.25 0.85 0.45 1.70 0.45 1.80 -0.05 1.65 1.75 7.25 3.40 10.50 2.10 4.25 8.25 11.75 9.60 11.75 0.45 0 1.75 1.10 2.90 2.45 2.60 3 4.65 3.85 6.15 2.65 0.60 -0.45 1.10 -1.50 1.20 -2.35 0.20 -2 -0.90 -5.60 -2.10 -6.95 -1.20 -1.30 -4 -9.65 -4.60 -13.65 -0.50 -3.55 -0.20 -15.65 0.40 -16.25 0.30 -0.30 1.15 0.40 2.15 1.65 3.50 4.45 8.55 6.30 10.20 3.75 0.95 -1.40 0.85 -1.70 -1.90 -9.35 -1.10 -2.95 -1.80 -5.90 -1.90 -7.75 -0.25 -5.40 -1.50 -9.25 -4.85 -14.95 l-1.50 -2.50 1.45 -4.45 c1.55 -4.65 4.30 -10.50 10.95 -23.30 2.20 -4.25 4.20 -8.40 4.45 -9.25 0.25 -0.80 0.95 -3.05 1.55 -5 2.30 -7.55 2.95 -12.85 2.70 -22.60 -0.20 -9 -0.20 -9.10 1.55 -16.10 0.95 -3.85 3.10 -11.05 4.80 -15.90 1.65 -4.90 3.25 -9.65 3.50 -10.50 0.70 -2.25 1.30 -2.05 1.70 0.50 0.45 2.85 1 4.75 3.25 10.60 2.70 7.05 3.70 14.05 3.70 25.75 -0.05 10 -0.65 13.80 -3.45 21.25 -4.45 11.75 -4.50 12.20 -4.45 21.50 0.05 5.30 0.30 7.60 1.50 12.50 0.80 3.30 1.40 6.90 1.35 8 -0.05 1.10 -1.25 6.50 -2.60 11.95 -3.30 12.95 -4.60 20.50 -5.80 33.55 -0.30 3.40 -0.30 25.40 0 27.75 1.45 11.15 3.10 20.75 4.75 27.50 4.50 18.75 4.85 26 1.90 37.75 -1.20 4.90 -1.30 11.15 -0.20 14.40 1.05 3.15 1 6.90 -0.15 11.15 -5.65 21 -6.05 23.25 -5.80 35.20 0.10 7.65 0.35 9.65 1.75 16 1.80 8.25 4.55 18.05 7.85 28.25 3 9.25 4.80 15.05 7.25 23.25 1.80 6.05 1.95 7.15 1.75 10.75 -0.15 3.25 -0.50 4.55 -1.80 6.95 -1.70 3.20 -1.95 5.30 -0.80 7.50 1.05 2 0.95 4.35 -0.45 8.45 -1.70 5.05 -7.50 14.60 -10.90 17.95 -1.25 1.20 -1.40 1.75 -1.40 4.55 0 3.45 0.50 4.35 2.55 4.35 0.75 0 1.60 0.35 2 0.80 0.45 0.55 1.25 0.75 2.55 0.60 1.25 -0.10 1.90 0.05 1.90 0.40 0 0.85 2.45 1.60 4.55 1.30 1.05 -0.10 2 0.05 2.15 0.35 0.55 0.85 4.55 0.65 6.55 -0.30z m-1.50 -597.90 c3.50 -21.35 17.60 -37.15 33.95 -38.10 5.45 -0.30 9.25 0.50 14.75 3.25 4.15 2.05 10.50 7.65 13.10 11.55 5.65 8.30 9.75 20 9.90 28.20 0.05 1.55 0.20 1.90 0.95 1.75 0.55 -0.10 0.85 -0.65 0.85 -1.40 0 -0.70 0.20 -1.55 0.40 -1.90 0.25 -0.35 0.30 -1 0.15 -1.50 -0.10 -0.45 -0.35 -1.85 -0.50 -3.10 -0.45 -3.55 -2.15 -9.10 -4.20 -13.90 -5 -11.55 -14.15 -20.75 -24.10 -24.15 -2.70 -0.95 -4.35 -1.10 -9.75 -1.10 -5.75 0 -6.95 0.15 -10.20 1.30 -8.70 3.10 -17.15 11.15 -22.15 21.10 -2.15 4.25 -4.50 10.65 -5.20 14 -0.65 3.35 -0.85 9.25 -0.25 9.25 0.30 0 0.55 0.40 0.55 0.90 0 1.70 0.75 1.70 0.90 0 0.05 -0.90 0.45 -3.65 0.85 -6.15z"/>
 </g>
<g opacity="0.5" transform="rotate(-45, 340.0, 339.0)">
  <text x="50%" y="50%" font-size="20" text-anchor="middle" fill="lightgray" dominant-baseline="middle">
    generated by vectorizer.io
  </text>
</g>
</svg>